<?xml version="1.0" encoding="UTF-8" standalone="no"?>
<svg
   xmlns:dc="http://purl.org/dc/elements/1.1/"
   xmlns:cc="http://creativecommons.org/ns#"
   xmlns:rdf="http://www.w3.org/1999/02/22-rdf-syntax-ns#"
   xmlns:svg="http://www.w3.org/2000/svg"
   xmlns="http://www.w3.org/2000/svg"
   xmlns:sodipodi="http://sodipodi.sourceforge.net/DTD/sodipodi-0.dtd"
   xmlns:inkscape="http://www.inkscape.org/namespaces/inkscape"
   viewBox="0 0 533.33331 506.66666"
   height="506.66666"
   width="533.33331"
   xml:space="preserve"
   id="svg2"
   version="1.1"
   sodipodi:docname="manteau.svg"
   inkscape:version="1.0.2-2 (e86c870879, 2021-01-15)"><sodipodi:namedview
     pagecolor="#ffffff"
     bordercolor="#666666"
     borderopacity="1"
     objecttolerance="10"
     gridtolerance="10"
     guidetolerance="10"
     inkscape:pageopacity="0"
     inkscape:pageshadow="2"
     inkscape:window-width="2560"
     inkscape:window-height="1411"
     id="namedview1895"
     showgrid="false"
     inkscape:zoom="1.1974295"
     inkscape:cx="48.683717"
     inkscape:cy="352.26089"
     inkscape:window-x="-9"
     inkscape:window-y="-9"
     inkscape:window-maximized="1"
     inkscape:current-layer="svg2"
     inkscape:document-rotation="0" /><metadata
     id="metadata8"><rdf:RDF><cc:Work
         rdf:about=""><dc:format>image/svg+xml</dc:format><dc:type
           rdf:resource="http://purl.org/dc/dcmitype/StillImage" /><dc:title /></cc:Work></rdf:RDF></metadata><defs
     id="defs6" /><path
     id="path14"
     style="fill:#ffffff;fill-opacity:1;fill-rule:nonzero;stroke:none;stroke-width:0.13333333"
     d="M -173.18007,481.19544 H -706.51339 V -25.471211 h 533.33332 V 481.19544"
     inkscape:connector-curvature="0" /><path
     id="path494"
     style="fill:#b3d7e2;fill-opacity:1;fill-rule:nonzero;stroke:none;stroke-width:1.10322"
     d="M 140.43433,443.43507 H 262.8302 L 263.97858,123.21266 256.59454,106.5943 241.32922,56.103164 H 155.97756 L 140.43433,106.5943 v 336.84077"
     inkscape:connector-curvature="0" /><path
     id="path496"
     style="fill:#b3d7e2;fill-opacity:1;fill-rule:nonzero;stroke:none;stroke-width:1.10322"
     d="m 161.75502,56.103164 h -60.89937 l -43.35566,179.919676 -11.618094,66.1027 62.078744,2.07735 7.94445,-54.46557 15.39623,-93.69056 14.84273,-0.32829 15.61097,-99.615068"
     inkscape:connector-curvature="0" /><path
     id="path498"
     style="fill:#b3d7e2;fill-opacity:1;fill-rule:nonzero;stroke:none;stroke-width:1.10322"
     d="m 31.828111,301.27772 89.613279,10.20632 5.80388,-43.66577 -89.604098,-10.14274 -5.813061,43.60219"
     inkscape:connector-curvature="0" /><path
     id="path504"
     style="fill:#000000;fill-opacity:0.20576131;fill-rule:nonzero;stroke:none;stroke-width:1.10322"
     d="m 113.50614,266.27095 -59.567257,-6.77243 1.098993,-9.55986 59.113644,11.38277 -0.64536,4.94952"
     inkscape:connector-curvature="0" /><path
     id="path506"
     style="fill:#b3d7e2;fill-opacity:1;fill-rule:nonzero;stroke:none;stroke-width:1.10322"
     d="M 385.28925,443.43507 H 262.8302 l 1.14838,-320.22241 25.39397,-67.109496 h 80.30572 l 15.61098,50.491136 v 336.84077"
     inkscape:connector-curvature="0" /><path
     id="path512"
     style="fill:#b3d7e2;fill-opacity:1;fill-rule:nonzero;stroke:none;stroke-width:1.10322"
     d="m 363.96281,56.103164 h 60.89133 l 43.33729,179.919676 11.62727,66.1027 -62.05233,2.07735 -7.972,-54.46557 -15.40427,-93.69056 -14.90587,-0.32829 -15.52142,-99.615068"
     inkscape:connector-curvature="0" /><path
     id="path514"
     style="fill:#b3d7e2;fill-opacity:1;fill-rule:nonzero;stroke:none;stroke-width:1.10322"
     d="m 493.84609,301.27772 -89.5685,10.20632 -5.81421,-43.66577 89.54207,-10.14274 5.84064,43.60219"
     inkscape:connector-curvature="0" /><path
     id="path516"
     style="fill:#797979;fill-opacity:1;fill-rule:nonzero;stroke:none;stroke-width:1.10322"
     d="m 267.76937,114.54316 h -6.23567 v 328.89191 h 6.23567 V 114.54316"
     inkscape:connector-curvature="0" /><path
     id="path522"
     style="fill:#797979;fill-opacity:1;fill-rule:nonzero;stroke:none;stroke-width:1.10322"
     d="m 287.63277,167.12214 h -27.04533 v -4.94943 h 27.04533 v 4.94943"
     inkscape:connector-curvature="0" /><path
     id="path524"
     style="fill:#797979;fill-opacity:1;fill-rule:nonzero;stroke:none;stroke-width:1.10322"
     d="m 290.35556,164.66332 c 0,4.90708 -4.33396,8.89216 -9.68997,8.89216 -5.29285,0 -9.63945,-3.98508 -9.63945,-8.89216 0,-4.98131 4.3466,-8.94508 9.63945,-8.94508 5.35601,0 9.68997,3.96377 9.68997,8.94508"
     inkscape:connector-curvature="0" /><path
     id="path526"
     style="fill:#000000;fill-opacity:0.20576131;fill-rule:nonzero;stroke:none;stroke-width:1.10322"
     d="m 287.63277,261.86196 h -27.04533 v -4.9283 h 27.04533 v 4.9283"
     inkscape:connector-curvature="0" /><path
     id="path528"
     style="fill:#000000;fill-opacity:0.20576131;fill-rule:nonzero;stroke:none;stroke-width:1.10322"
     d="m 290.35556,259.37133 c 0,4.93887 -4.33396,8.90273 -9.68997,8.90273 -5.29285,0 -9.63945,-3.96386 -9.63945,-8.90273 0,-4.91772 4.3466,-8.92394 9.63945,-8.92394 5.35601,0 9.68997,4.00622 9.68997,8.92394"
     inkscape:connector-curvature="0" /><path
     id="path530"
     style="fill:#797979;fill-opacity:1;fill-rule:nonzero;stroke:none;stroke-width:1.10322"
     d="m 287.63277,345.65348 h -27.04533 v -4.98124 h 27.04533 v 4.98124"
     inkscape:connector-curvature="0" /><path
     id="path532"
     style="fill:#797979;fill-opacity:1;fill-rule:nonzero;stroke:none;stroke-width:1.10322"
     d="m 290.35556,343.17343 c 0,4.91772 -4.33396,8.92395 -9.68997,8.92395 -5.29285,0 -9.63945,-4.00623 -9.63945,-8.92395 0,-4.92828 4.3466,-8.92385 9.63945,-8.92385 5.35601,0 9.68997,3.99557 9.68997,8.92385"
     inkscape:connector-curvature="0" /><path
     id="path538"
     style="fill:#000000;fill-opacity:0.20576131;fill-rule:nonzero;stroke:none;stroke-width:1.10322"
     d="m 412.21744,266.27095 59.56266,-6.77243 -1.14837,-9.55986 -59.15499,11.38277 0.7407,4.94952"
     inkscape:connector-curvature="0" /><path
     id="path540"
     style="fill:#797979;fill-opacity:1;fill-rule:nonzero;stroke:none;stroke-width:1.10322"
     d="m 265.95264,114.80809 23.35675,-64.958054 45.79137,6.253128 -69.14812,101.575746 v -42.87082"
     inkscape:connector-curvature="0" /><path
     id="path542"
     style="fill:#797979;fill-opacity:1;fill-rule:nonzero;stroke:none;stroke-width:1.10322"
     d="M 262.8302,114.54316 239.4413,49.850036 193.75328,56.103164 262.8302,157.67891 v -43.13575"
     inkscape:connector-curvature="0" /></svg>
