<?xml version="1.0" encoding="UTF-8" standalone="no"?>
<svg
   xmlns:dc="http://purl.org/dc/elements/1.1/"
   xmlns:cc="http://creativecommons.org/ns#"
   xmlns:rdf="http://www.w3.org/1999/02/22-rdf-syntax-ns#"
   xmlns:svg="http://www.w3.org/2000/svg"
   xmlns="http://www.w3.org/2000/svg"
   xmlns:sodipodi="http://sodipodi.sourceforge.net/DTD/sodipodi-0.dtd"
   xmlns:inkscape="http://www.inkscape.org/namespaces/inkscape"
   viewBox="0 0 533.33331 506.66666"
   height="506.66666"
   width="533.33331"
   xml:space="preserve"
   id="svg2"
   version="1.1"
   sodipodi:docname="pull.svg"
   inkscape:version="1.0.2-2 (e86c870879, 2021-01-15)"><sodipodi:namedview
     pagecolor="#ffffff"
     bordercolor="#666666"
     borderopacity="1"
     objecttolerance="10"
     gridtolerance="10"
     guidetolerance="10"
     inkscape:pageopacity="0"
     inkscape:pageshadow="2"
     inkscape:window-width="2560"
     inkscape:window-height="1411"
     id="namedview1895"
     showgrid="false"
     inkscape:zoom="1.6934211"
     inkscape:cx="229.91064"
     inkscape:cy="345.46803"
     inkscape:window-x="-9"
     inkscape:window-y="-9"
     inkscape:window-maximized="1"
     inkscape:current-layer="svg2"
     inkscape:document-rotation="0" /><metadata
     id="metadata8"><rdf:RDF><cc:Work
         rdf:about=""><dc:format>image/svg+xml</dc:format><dc:type
           rdf:resource="http://purl.org/dc/dcmitype/StillImage" /><dc:title /></cc:Work></rdf:RDF></metadata><defs
     id="defs6" /><path
     id="path14"
     style="fill:#ffffff;fill-opacity:1;fill-rule:nonzero;stroke:none;stroke-width:0.13333333"
     d="M -173.18007,481.19544 H -706.51339 V -25.471211 h 533.33332 V 481.19544"
     inkscape:connector-curvature="0" /><path
     id="path634"
     style="fill:#3db7e3;fill-opacity:1;fill-rule:nonzero;stroke:none;stroke-width:1.04199"
     d="M 510.7321,276.75298 472.19449,312.78993 321.27568,129.88517 359.82343,93.826705 510.7321,276.75298"
     inkscape:connector-curvature="0" /><path
     id="path636"
     style="fill:#3db7e3;fill-opacity:1;fill-rule:nonzero;stroke:none;stroke-width:1.04788"
     d="M 24.285919,278.8314 62.813453,315.27781 213.72204,130.29489 175.19459,93.826733 24.285919,278.8314"
     inkscape:connector-curvature="0" /><path
     id="path640"
     style="fill:#3db7e3;fill-opacity:1;fill-rule:nonzero;stroke:none;stroke-width:0.963862"
     d="M 176.31557,348.64605 H 359.82366 V 182.61793 l -0.55518,-0.62557 -182.95268,166.65367"
     inkscape:connector-curvature="0" /><path
     id="path646"
     style="fill:#3db7e3;fill-opacity:1;fill-rule:nonzero;stroke:none;stroke-width:0.963862"
     d="m 314.42889,88.233584 h -93.85968 l -45.37462,5.593149 V 348.64605 h 1.12098 l 182.95268,-166.65367 0.55518,-0.51519 V 93.826705 l -45.39477,-5.593148"
     inkscape:connector-curvature="0" /><path
     id="path648"
     style="fill:#3db7e3;fill-opacity:1;fill-rule:nonzero;stroke:none;stroke-width:0.963862"
     d="m 359.26825,181.99238 0.55518,0.62557 v -1.14071 z"
     inkscape:connector-curvature="0" /><path
     id="path650"
     style="fill:#737373;fill-opacity:1;fill-rule:nonzero;stroke:none;stroke-width:0.963862"
     d="m 230.17332,85.096643 c -13.64366,26.696237 37.3055,46.318237 37.3055,46.318237 V 85.096643 h -37.3055"
     inkscape:connector-curvature="0" /><path
     id="path652"
     style="fill:#737373;fill-opacity:1;fill-rule:nonzero;stroke:none;stroke-width:0.963862"
     d="M 304.80456,85.096643 C 318.4483,111.79288 267.47882,131.41488 267.47882,131.41488 V 85.096643 h 37.32574"
     inkscape:connector-curvature="0" /><path
     id="path654"
     style="fill:#737373;fill-opacity:1;fill-rule:nonzero;stroke:none;stroke-width:0.963862"
     d="m 267.47882,134.82781 v -14.14846 c -20.64223,0 -37.37617,-15.26156 -37.37617,-34.064829 0,-0.505936 0.0606,-0.99352 0.0681,-1.517878 l -15.47161,3.94648 c 1.39365,25.500327 24.45971,45.784687 52.77713,45.784687"
     inkscape:connector-curvature="0" /><path
     id="path656"
     style="fill:#737373;fill-opacity:1;fill-rule:nonzero;stroke:none;stroke-width:0.963862"
     d="m 304.89545,86.614521 c 0,18.803269 -16.74401,34.064829 -37.41663,34.064829 v 0 14.14846 0 c 28.42862,0 51.54512,-20.40395 52.82766,-45.996271 l -15.50192,-4.001676 c 0.0227,0.588729 0.0909,1.168303 0.0909,1.784658"
     inkscape:connector-curvature="0" /></svg>
