<?xml version="1.0" encoding="UTF-8" standalone="no"?>
<svg
   xmlns:dc="http://purl.org/dc/elements/1.1/"
   xmlns:cc="http://creativecommons.org/ns#"
   xmlns:rdf="http://www.w3.org/1999/02/22-rdf-syntax-ns#"
   xmlns:svg="http://www.w3.org/2000/svg"
   xmlns="http://www.w3.org/2000/svg"
   xmlns:sodipodi="http://sodipodi.sourceforge.net/DTD/sodipodi-0.dtd"
   xmlns:inkscape="http://www.inkscape.org/namespaces/inkscape"
   viewBox="0 0 533.33331 506.66666"
   height="506.66666"
   width="533.33331"
   xml:space="preserve"
   id="svg2"
   version="1.1"
   sodipodi:docname="short.svg"
   inkscape:version="1.0.2-2 (e86c870879, 2021-01-15)"><sodipodi:namedview
     pagecolor="#ffffff"
     bordercolor="#666666"
     borderopacity="1"
     objecttolerance="10"
     gridtolerance="10"
     guidetolerance="10"
     inkscape:pageopacity="0"
     inkscape:pageshadow="2"
     inkscape:window-width="2560"
     inkscape:window-height="1411"
     id="namedview1895"
     showgrid="false"
     inkscape:zoom="1.6934211"
     inkscape:cx="229.91064"
     inkscape:cy="345.46803"
     inkscape:window-x="-9"
     inkscape:window-y="-9"
     inkscape:window-maximized="1"
     inkscape:current-layer="svg2"
     inkscape:document-rotation="0" /><metadata
     id="metadata8"><rdf:RDF><cc:Work
         rdf:about=""><dc:format>image/svg+xml</dc:format><dc:type
           rdf:resource="http://purl.org/dc/dcmitype/StillImage" /></cc:Work></rdf:RDF></metadata><defs
     id="defs6" /><path
     id="path14"
     style="fill:#ffffff;fill-opacity:1;fill-rule:nonzero;stroke:none;stroke-width:0.13333333"
     d="M -173.18007,481.19544 H -706.51339 V -25.471211 h 533.33332 V 481.19544"
     inkscape:connector-curvature="0" /><path
     id="path372"
     style="fill:#f15a29;fill-opacity:1;fill-rule:nonzero;stroke:none;stroke-width:1.63042"
     d="m 407.72584,220.0481 c 0,-40.22136 -14.56656,-81.05668 -14.56656,-81.05668 H 268.20109 143.30572 c 0,0 -14.57908,40.83532 -14.57908,81.05668 0,14.92426 0,88.97399 0,176.02166 H 255.6563 c 3.13931,-41.87271 5.98986,-70.76863 8.06182,-71.2343 l 4.52065,-0.0159 4.52064,0.0159 c 2.04682,0.4652 4.9099,29.36159 8.03667,71.2343 h 126.92976 c 0,-87.04767 0,-161.0974 0,-176.02166"
     inkscape:connector-curvature="0" /><path
     id="path374"
     style="fill:#525252;fill-opacity:0.672489;fill-rule:nonzero;stroke:none;stroke-width:1.63042"
     d="M 268.20109,102.38983 H 143.30572 v 36.60159 H 393.15928 V 102.38983 H 268.20109"
     inkscape:connector-curvature="0" /><path
     id="path376"
     style="fill:#f4ffff;fill-opacity:0.30452675;fill-rule:nonzero;stroke:none;stroke-width:1.63042"
     d="m 276.23777,326.23263 h -13.54932 v -11.70649 h 13.54932 c 1.8334,0 3.36543,-2.49807 3.36543,-5.60994 V 134.48239 h 6.88136 V 308.9162 c 0,9.52613 -4.60852,17.31643 -10.24679,17.31643"
     inkscape:connector-curvature="0" /><path
     id="path378"
     style="fill:#f15a29;fill-opacity:1;fill-rule:nonzero;stroke:none;stroke-width:1.63042"
     d="m 205.52733,138.99142 h -20.41825 v -36.60159 h 20.41825 v 36.60159"
     inkscape:connector-curvature="0" /><path
     id="path380"
     style="fill:#f15a29;fill-opacity:1;fill-rule:nonzero;stroke:none;stroke-width:1.63042"
     d="m 330.88739,138.99142 h 20.40572 v -36.60159 h -20.40572 v 36.60159"
     inkscape:connector-curvature="0" /><path
     id="path382"
     style="fill:#f4ffff;fill-opacity:0.30452675;fill-rule:nonzero;stroke:none;stroke-width:1.63042"
     d="m 128.90238,312.4515 c -0.17611,0 -0.30137,0 -0.41439,-0.0159 l 0.41439,-11.66426 c 0.0471,-0.0159 14.44102,-0.61444 21.72425,-61.77168 4.52065,-38.46426 -0.60276,-71.21301 -6.83116,-100.87101 l 6.55493,-3.89508 c 6.54231,31.2033 11.94204,65.836 7.0572,107.07364 -8.0493,67.69898 -25.13979,71.14951 -28.50522,71.14951"
     inkscape:connector-curvature="0" /><path
     id="path384"
     style="fill:#f4ffff;fill-opacity:0.30452675;fill-rule:nonzero;stroke:none;stroke-width:1.63042"
     d="m 407.57515,312.4515 c -3.41563,0 -20.46855,-3.45052 -28.51774,-71.1495 -4.88485,-41.21637 0.48974,-75.84923 7.04467,-107.07364 l 6.51727,3.89507 c -6.21589,29.67912 -11.36443,62.42787 -6.76845,100.87102 7.25818,61.0942 21.61124,61.75056 21.78697,61.75056 v 0 l 0.31362,11.68538 c -0.0848,0.0159 -0.25146,0.0159 -0.37672,0.0159"
     inkscape:connector-curvature="0" /></svg>
