<?xml version="1.0" encoding="UTF-8" standalone="no"?>
<svg
   xmlns:dc="http://purl.org/dc/elements/1.1/"
   xmlns:cc="http://creativecommons.org/ns#"
   xmlns:rdf="http://www.w3.org/1999/02/22-rdf-syntax-ns#"
   xmlns:svg="http://www.w3.org/2000/svg"
   xmlns="http://www.w3.org/2000/svg"
   xmlns:sodipodi="http://sodipodi.sourceforge.net/DTD/sodipodi-0.dtd"
   xmlns:inkscape="http://www.inkscape.org/namespaces/inkscape"
   viewBox="0 0 533.33331 506.66666"
   height="506.66666"
   width="533.33331"
   xml:space="preserve"
   id="svg2"
   version="1.1"
   sodipodi:docname="veste.svg"
   inkscape:version="1.0.2-2 (e86c870879, 2021-01-15)"><sodipodi:namedview
     pagecolor="#ffffff"
     bordercolor="#666666"
     borderopacity="1"
     objecttolerance="10"
     gridtolerance="10"
     guidetolerance="10"
     inkscape:pageopacity="0"
     inkscape:pageshadow="2"
     inkscape:window-width="2560"
     inkscape:window-height="1411"
     id="namedview1895"
     showgrid="false"
     inkscape:zoom="1.1974295"
     inkscape:cx="48.683717"
     inkscape:cy="371.41783"
     inkscape:window-x="-9"
     inkscape:window-y="-9"
     inkscape:window-maximized="1"
     inkscape:current-layer="svg2"
     inkscape:document-rotation="0" /><metadata
     id="metadata8"><rdf:RDF><cc:Work
         rdf:about=""><dc:format>image/svg+xml</dc:format><dc:type
           rdf:resource="http://purl.org/dc/dcmitype/StillImage" /><dc:title /></cc:Work></rdf:RDF></metadata><defs
     id="defs6" /><path
     id="path14"
     style="fill:#ffffff;fill-opacity:1;fill-rule:nonzero;stroke:none;stroke-width:0.13333333"
     d="M -173.18007,481.19544 H -706.51339 V -25.471211 h 533.33332 V 481.19544"
     inkscape:connector-curvature="0" /><path
     id="path676"
     style="fill:#515067;fill-opacity:1;fill-rule:nonzero;stroke:none;stroke-width:1.0228"
     d="m 15.408966,317.94221 44.22066,40.41115 18.935788,-26.60317 -43.643292,-41.2714 -19.513156,27.46342"
     inkscape:connector-curvature="0" /><path
     id="path678"
     style="fill:#515067;fill-opacity:1;fill-rule:nonzero;stroke:none;stroke-width:1.0228"
     d="M 175.52115,92.855105 34.922122,290.47879 78.565414,331.75019 215.07775,139.84352 175.52115,92.855105"
     inkscape:connector-curvature="0" /><path
     id="path680"
     style="fill:#515067;fill-opacity:1;fill-rule:nonzero;stroke:none;stroke-width:1.0228"
     d="m 515.77937,317.94221 -44.22834,40.41115 -18.94732,-26.60317 43.63176,-41.2714 19.5439,27.46342"
     inkscape:connector-curvature="0" /><path
     id="path682"
     style="fill:#515067;fill-opacity:1;fill-rule:nonzero;stroke:none;stroke-width:1.0228"
     d="m 356.48471,93.530205 -7.33664,93.062195 9.09275,12.00026 40.40006,-45.81234 -42.15617,-59.250115"
     inkscape:connector-curvature="0" /><path
     id="path684"
     style="fill:#515067;fill-opacity:1;fill-rule:nonzero;stroke:none;stroke-width:1.0228"
     d="m 358.24082,198.59266 94.7193,133.15753 43.63176,-41.2714 -97.951,-137.69847 -40.40006,45.81234"
     inkscape:connector-curvature="0" /><path
     id="path686"
     style="fill:#515067;fill-opacity:1;fill-rule:nonzero;stroke:none;stroke-width:1.0228"
     d="M 265.99333,233.6571 C 235.68319,178.93706 203.71109,89.511955 203.71109,89.511955 l -28.18994,3.34315 -0.14215,311.517555 h 1.31324 l 89.084,-100.96802 0.21709,-69.74754"
     inkscape:connector-curvature="0" /><path
     id="path688"
     style="fill:#515067;fill-opacity:1;fill-rule:nonzero;stroke:none;stroke-width:1.0228"
     d="m 176.69222,404.37266 h 89.084 V 303.40464 Z"
     inkscape:connector-curvature="0" /><path
     id="path690"
     style="fill:#515067;fill-opacity:1;fill-rule:nonzero;stroke:none;stroke-width:1.0228"
     d="m 265.77622,303.40464 v 100.96802 h 90.3857 V 200.94481 l -90.3857,102.45983"
     inkscape:connector-curvature="0" /><path
     id="path692"
     style="fill:#515067;fill-opacity:1;fill-rule:nonzero;stroke:none;stroke-width:1.0228"
     d="m 356.16192,200.94481 0.32279,-107.414605 -28.2053,-3.96377 c -0.12393,0.66399 -31.24776,76.412025 -62.28608,140.954475 -0.0259,0.0735 -0.14605,-24.16396 -0.21709,-24.16396 v 97.04769 l 90.38571,-102.45983"
     inkscape:connector-curvature="0" /><path
     id="path694"
     style="fill:#858585;fill-opacity:1;fill-rule:nonzero;stroke:none;stroke-width:1.0228"
     d="m 316.91275,87.475635 32.23532,5.00917 -20.86866,21.310915 15.7233,13.67723 -78.00938,106.18415 50.91942,-146.181465"
     inkscape:connector-curvature="0" /><path
     id="path696"
     style="fill:#858585;fill-opacity:1;fill-rule:nonzero;stroke:none;stroke-width:1.0228"
     d="m 215.07775,87.475635 -32.22764,5.00917 20.86098,21.310915 -15.71178,13.67723 77.99402,106.18415 -50.91558,-146.181465"
     inkscape:connector-curvature="0" /></svg>
