<?xml version="1.0" encoding="UTF-8" standalone="no"?>
<svg
   xmlns:dc="http://purl.org/dc/elements/1.1/"
   xmlns:cc="http://creativecommons.org/ns#"
   xmlns:rdf="http://www.w3.org/1999/02/22-rdf-syntax-ns#"
   xmlns:svg="http://www.w3.org/2000/svg"
   xmlns="http://www.w3.org/2000/svg"
   xmlns:sodipodi="http://sodipodi.sourceforge.net/DTD/sodipodi-0.dtd"
   xmlns:inkscape="http://www.inkscape.org/namespaces/inkscape"
   width="210mm"
   height="297mm"
   viewBox="0 0 210 297"
   version="1.1"
   id="svg8"
   inkscape:version="1.0.2-2 (e86c870879, 2021-01-15)"
   sodipodi:docname="dessin.svg">
  <defs
     id="defs2" />
  <sodipodi:namedview
     id="base"
     pagecolor="#ffffff"
     bordercolor="#666666"
     borderopacity="1.0"
     inkscape:pageopacity="0.0"
     inkscape:pageshadow="2"
     inkscape:zoom="0.98994949"
     inkscape:cx="377.40961"
     inkscape:cy="298.41641"
     inkscape:document-units="mm"
     inkscape:current-layer="layer1"
     inkscape:document-rotation="0"
     showgrid="false"
     inkscape:window-width="1647"
     inkscape:window-height="1208"
     inkscape:window-x="32"
     inkscape:window-y="32"
     inkscape:window-maximized="0" />
  <metadata
     id="metadata5">
    <rdf:RDF>
      <cc:Work
         rdf:about="">
        <dc:format>image/svg+xml</dc:format>
        <dc:type
           rdf:resource="http://purl.org/dc/dcmitype/StillImage" />
        <dc:title></dc:title>
      </cc:Work>
    </rdf:RDF>
  </metadata>
  <g
     inkscape:label="Calque 1"
     inkscape:groupmode="layer"
     id="layer1">
    <path
       style="fill:none;stroke:#000000;stroke-width:0.264583px;stroke-linecap:butt;stroke-linejoin:miter;stroke-opacity:1"
       d="m 34.2105,33.943229 c 103.16604,-0.534538 91.40618,-3.741772 103.16604,-0.534538 11.75985,3.207234 5.61266,68.955539 5.61266,68.955539 l -108.7787,4.54358 z"
       id="path833" />
    <path
       style="opacity:0.83;fill:#2622dd;stroke:#8f00c3;stroke-width:14.2751;stroke-opacity:0;fill-opacity:1"
       d="M 130.42731,266.19654 V 129.21586 l 22.98097,-0.008 c 68.72399,-0.0231 209.3387,-2.82607 283.60033,-5.65311 50.36888,-1.91748 62.03369,-1.62402 75.09277,1.88916 11.11821,2.99103 14.84281,5.95645 19.36618,15.41875 14.28524,29.88291 17.80613,112.12651 9.59444,224.11464 -0.8104,11.05178 -1.67263,20.29333 -1.91609,20.53679 -0.24346,0.24345 -85.82714,4.00978 -190.18596,8.36961 -104.35881,4.35981 -196.2209,8.23437 -204.13797,8.61011 l -14.39467,0.68316 z"
       id="path835"
       transform="scale(0.26458333)" />
  </g>
</svg>