<?xml version="1.0" encoding="UTF-8" standalone="no"?>
<svg
   xmlns:dc="http://purl.org/dc/elements/1.1/"
   xmlns:cc="http://creativecommons.org/ns#"
   xmlns:rdf="http://www.w3.org/1999/02/22-rdf-syntax-ns#"
   xmlns:svg="http://www.w3.org/2000/svg"
   xmlns="http://www.w3.org/2000/svg"
   xmlns:sodipodi="http://sodipodi.sourceforge.net/DTD/sodipodi-0.dtd"
   xmlns:inkscape="http://www.inkscape.org/namespaces/inkscape"
   viewBox="0 0 533.33331 506.66666"
   height="506.66666"
   width="533.33331"
   xml:space="preserve"
   id="svg2"
   version="1.1"
   sodipodi:docname="tous.svg"
   inkscape:version="1.0.2-2 (e86c870879, 2021-01-15)"><sodipodi:namedview
     pagecolor="#ffffff"
     bordercolor="#666666"
     borderopacity="1"
     objecttolerance="10"
     gridtolerance="10"
     guidetolerance="10"
     inkscape:pageopacity="0"
     inkscape:pageshadow="2"
     inkscape:window-width="2560"
     inkscape:window-height="1411"
     id="namedview1895"
     showgrid="false"
     inkscape:zoom="1.6934211"
     inkscape:cx="229.91064"
     inkscape:cy="345.46803"
     inkscape:window-x="-9"
     inkscape:window-y="-9"
     inkscape:window-maximized="1"
     inkscape:current-layer="svg2"
     inkscape:document-rotation="0" /><metadata
     id="metadata8"><rdf:RDF><cc:Work
         rdf:about=""><dc:format>image/svg+xml</dc:format><dc:type
           rdf:resource="http://purl.org/dc/dcmitype/StillImage" /><dc:title /></cc:Work></rdf:RDF></metadata><defs
     id="defs6" /><path
     id="path14"
     style="fill:#ffffff;fill-opacity:1;fill-rule:nonzero;stroke:none;stroke-width:0.13333333"
     d="M -173.18007,481.19544 H -706.51339 V -25.471211 h 533.33332 V 481.19544"
     inkscape:connector-curvature="0" /><path
     id="path350"
     style="fill:#eec3dc;fill-opacity:1;fill-rule:nonzero;stroke:none;stroke-width:0.98503"
     d="m 165.23781,55.036649 c 0,0 -9.97495,14.78886 -9.97495,29.326596 0,14.500485 9.97495,389.207585 9.97495,389.207585 h 49.21338 c 0,0 27.91776,-351.35185 33.16187,-351.35185 l 9.24159,0.0557 V 55.036602 h -91.61684"
     inkscape:connector-curvature="0" /><path
     id="path352"
     style="fill:#eec3dc;fill-opacity:1;fill-rule:nonzero;stroke:none;stroke-width:0.98503"
     d="m 336.08887,53.939066 c 0,0 11.29562,16.211941 11.29562,30.721765 0,14.519182 -9.98017,389.226219 -9.98017,389.226219 h -49.18001 c 0,0 -27.93757,-351.33325 -33.19523,-351.33325 l -9.22491,0.0349 V 55.35976 l 90.2847,-1.423065"
     inkscape:connector-curvature="0" /><path
     id="path354"
     style="fill:#414042;fill-opacity:1;fill-rule:nonzero;stroke:none;stroke-width:0.98503"
     d="M 250.64872,28.574753 H 165.23781 V 55.036649 H 336.08887 V 28.574753 h -85.44015"
     inkscape:connector-curvature="0" /><path
     id="path356"
     style="fill:#754c29;fill-opacity:1;fill-rule:nonzero;stroke:none;stroke-width:0.98503"
     d="M 336.08887,32.64868 H 165.23781 V 52.953161 H 336.08887 V 32.64868"
     inkscape:connector-curvature="0" /><path
     id="path358"
     style="fill:#000000;fill-opacity:0.25102881;fill-rule:nonzero;stroke:none;stroke-width:0.98503"
     d="m 256.14216,122.75849 h -9.26663 v -4.23206 h 9.26663 c 1.25077,0 2.29813,-0.90219 2.29813,-2.03696 V 53.418234 h 4.71834 v 63.071236 c 0,3.46003 -3.15774,6.26902 -7.01647,6.26902"
     inkscape:connector-curvature="0" /><path
     id="path360"
     style="fill:#8b5e3c;fill-opacity:1;fill-rule:nonzero;stroke:none;stroke-width:0.98503"
     d="m 183.36735,30.91865 c 0,0 -10.64362,7.25492 -10.64362,10.017363 0,2.790356 10.64362,10.045275 10.64362,10.045275 H 336.08887 V 30.91865 H 183.36735"
     inkscape:connector-curvature="0" /><path
     id="path362"
     style="fill:#676668;fill-opacity:1;fill-rule:nonzero;stroke:none;stroke-width:0.98503"
     d="M 207.79253,55.036649 H 193.83156 V 28.574753 h 13.96097 v 26.461896"
     inkscape:connector-curvature="0" /><path
     id="path364"
     style="fill:#676668;fill-opacity:1;fill-rule:nonzero;stroke:none;stroke-width:0.98503"
     d="m 293.49659,55.036649 h 13.97349 V 28.574753 h -13.97349 v 26.461896"
     inkscape:connector-curvature="0" /><path
     id="path366"
     style="fill:#754c29;fill-opacity:1;fill-rule:nonzero;stroke:none;stroke-width:0.98503"
     d="m 245.7468,33.895056 c -1.27999,0 -2.26998,0.911532 -2.26998,2.036949 v 11.747393 c 0,1.134762 0.98999,2.046231 2.26998,2.046231 h 24.26661 c 1.25078,0 2.2731,-0.911469 2.2731,-2.046231 V 35.932005 c 0,-1.125417 -1.02232,-2.036949 -2.2731,-2.036949 z m 24.26661,20.04401 H 245.7468 c -3.87127,0 -7.02899,-2.790355 -7.02899,-6.259668 V 35.932005 c 0,-3.450747 3.15772,-6.259669 7.02899,-6.259669 h 24.26661 c 3.85875,0 6.99666,2.808922 6.99666,6.259669 v 11.747393 c 0,3.469313 -3.13791,6.259668 -6.99666,6.259668"
     inkscape:connector-curvature="0" /><path
     id="path368"
     style="fill:#000000;fill-opacity:0.25102881;fill-rule:nonzero;stroke:none;stroke-width:0.98503"
     d="m 155.3849,117.78231 c -0.122,0 -0.20755,0 -0.28479,0 l 0.28479,-4.23199 c 0.0282,0 9.87795,-0.22323 14.8529,-22.341441 3.08471,-13.905226 -0.38705,-25.773576 -4.65782,-36.497807 l 4.47839,-1.385887 c 4.46693,11.291651 8.16607,23.801706 4.81745,38.720809 -5.50178,24.480646 -17.19694,25.736316 -19.49092,25.736316"
     inkscape:connector-curvature="0" /><path
     id="path370"
     style="fill:#000000;fill-opacity:0.25102881;fill-rule:nonzero;stroke:none;stroke-width:0.98503"
     d="m 345.95428,117.78231 c -2.33569,0 -14.00165,-1.25567 -19.49508,-25.736316 -3.3455,-14.919103 0.34215,-27.419891 4.82057,-38.720809 l 4.44189,1.385887 c -4.22595,10.752143 -7.75506,22.592581 -4.64114,36.497807 4.97914,22.108871 14.80804,22.341441 14.91861,22.341441 v 0 l 0.22009,4.23199 c -0.0658,0 -0.18778,0 -0.26499,0"
     inkscape:connector-curvature="0" /></svg>
