<?xml version="1.0" encoding="UTF-8" standalone="no"?>
<svg
   xmlns:dc="http://purl.org/dc/elements/1.1/"
   xmlns:cc="http://creativecommons.org/ns#"
   xmlns:rdf="http://www.w3.org/1999/02/22-rdf-syntax-ns#"
   xmlns:svg="http://www.w3.org/2000/svg"
   xmlns="http://www.w3.org/2000/svg"
   xmlns:sodipodi="http://sodipodi.sourceforge.net/DTD/sodipodi-0.dtd"
   xmlns:inkscape="http://www.inkscape.org/namespaces/inkscape"
   viewBox="0 0 533.33331 506.66666"
   height="506.66666"
   width="533.33331"
   xml:space="preserve"
   id="svg2"
   version="1.1"
   sodipodi:docname="jupe.svg"
   inkscape:version="1.0.2-2 (e86c870879, 2021-01-15)"><sodipodi:namedview
     pagecolor="#ffffff"
     bordercolor="#666666"
     borderopacity="1"
     objecttolerance="10"
     gridtolerance="10"
     guidetolerance="10"
     inkscape:pageopacity="0"
     inkscape:pageshadow="2"
     inkscape:window-width="2560"
     inkscape:window-height="1411"
     id="namedview1895"
     showgrid="false"
     inkscape:zoom="1.6934211"
     inkscape:cx="180.22374"
     inkscape:cy="250.98474"
     inkscape:window-x="-9"
     inkscape:window-y="-9"
     inkscape:window-maximized="1"
     inkscape:current-layer="svg2"
     inkscape:document-rotation="0" /><metadata
     id="metadata8"><rdf:RDF><cc:Work
         rdf:about=""><dc:format>image/svg+xml</dc:format><dc:type
           rdf:resource="http://purl.org/dc/dcmitype/StillImage" /><dc:title /></cc:Work></rdf:RDF></metadata><defs
     id="defs6" /><path
     id="path14"
     style="fill:#ffffff;fill-opacity:1;fill-rule:nonzero;stroke:none;stroke-width:0.13333333"
     d="M -173.18007,481.19544 H -706.51339 V -25.471211 h 533.33332 V 481.19544"
     inkscape:connector-curvature="0" /><path
     id="path16"
     style="fill:#ac89e1;fill-opacity:1;fill-rule:nonzero;stroke:none;stroke-width:1.31262"
     d="m 163.89091,67.716129 c 0,0 -131.370925,258.575361 -152.978975,266.698481 0,0 15.73594,41.19767 88.543174,41.19767 0,0 9.985041,31.31364 64.314501,39.83436 23.79191,3.72068 45.81243,3.94797 64.93326,-10.63673 0,0 8.05596,16.51603 35.60892,16.51603 V 67.716129 H 163.89091"
     inkscape:connector-curvature="0" /><path
     id="path18"
     style="fill:#000000;fill-opacity:0.187773;fill-rule:nonzero;stroke:none;stroke-width:1.31262"
     d="m 99.455109,375.61228 c 0,0 53.613621,-68.0947 64.435801,-117.71372 0,0 -73.171211,132.62498 -152.978975,76.51605 0,0 19.3999,42.81661 88.543174,41.19767"
     inkscape:connector-curvature="0" /><path
     id="path20"
     style="fill:#000000;fill-opacity:0.227074;fill-rule:nonzero;stroke:none;stroke-width:1.31262"
     d="m 228.70287,404.80991 c 0,0 13.3094,-94.39529 9.17218,-122.57053 0,0 -11.63512,115.58354 -33.46146,133.6759 0,0 13.4792,-2.84027 24.28928,-11.10537"
     inkscape:connector-curvature="0" /><path
     id="path22"
     style="fill:#ac89e1;fill-opacity:1;fill-rule:nonzero;stroke:none;stroke-width:1.31262"
     d="m 364.81766,67.716129 c 0,0 131.34662,258.575361 152.95467,266.698481 0,0 -15.73585,41.19767 -88.55528,41.19767 0,0 -9.94863,31.31364 -64.36299,39.83436 -23.74341,3.72068 -45.77604,3.94797 -64.89686,-10.63673 0,0 -8.05606,16.51603 -35.64541,16.51603 V 67.716129 h 100.50587"
     inkscape:connector-curvature="0" /><path
     id="path24"
     style="fill:#000000;fill-opacity:0.244541;fill-rule:nonzero;stroke:none;stroke-width:1.31262"
     d="m 429.21705,375.61228 c 0,0 -53.57721,-68.0947 -64.39939,-117.71372 0,0 73.14691,132.62498 152.95467,76.51605 0,0 -19.41201,42.81661 -88.55528,41.19767"
     inkscape:connector-curvature="0" /><path
     id="path26"
     style="fill:#000000;fill-opacity:0.270742;fill-rule:nonzero;stroke:none;stroke-width:1.31262"
     d="m 299.9572,404.80991 c 0,0 -13.29731,-94.39529 -9.12369,-122.57053 0,0 11.61082,115.58354 33.43726,133.6759 0,0 -13.5035,-2.84027 -24.31357,-11.10537"
     inkscape:connector-curvature="0" /><path
     id="path28"
     style="fill:#868686;fill-opacity:1;fill-rule:nonzero;stroke:none;stroke-width:1.31262"
     d="M 383.24693,103.60252 H 146.0076 V 62.234429 h 237.23933 v 41.368091"
     inkscape:connector-curvature="0" /></svg>
