<?xml version="1.0" encoding="UTF-8" standalone="no"?>
<svg
   xmlns:dc="http://purl.org/dc/elements/1.1/"
   xmlns:cc="http://creativecommons.org/ns#"
   xmlns:rdf="http://www.w3.org/1999/02/22-rdf-syntax-ns#"
   xmlns:svg="http://www.w3.org/2000/svg"
   xmlns="http://www.w3.org/2000/svg"
   xmlns:sodipodi="http://sodipodi.sourceforge.net/DTD/sodipodi-0.dtd"
   xmlns:inkscape="http://www.inkscape.org/namespaces/inkscape"
   viewBox="0 0 533.33331 506.66666"
   height="506.66666"
   width="533.33331"
   xml:space="preserve"
   id="svg2"
   version="1.1"
   sodipodi:docname="tshirt.svg"
   inkscape:version="1.0.2-2 (e86c870879, 2021-01-15)"><sodipodi:namedview
     pagecolor="#ffffff"
     bordercolor="#666666"
     borderopacity="1"
     objecttolerance="10"
     gridtolerance="10"
     guidetolerance="10"
     inkscape:pageopacity="0"
     inkscape:pageshadow="2"
     inkscape:window-width="2560"
     inkscape:window-height="1411"
     id="namedview1895"
     showgrid="false"
     inkscape:zoom="1.1974295"
     inkscape:cx="48.683717"
     inkscape:cy="371.41783"
     inkscape:window-x="-9"
     inkscape:window-y="-9"
     inkscape:window-maximized="1"
     inkscape:current-layer="svg2"
     inkscape:document-rotation="0" /><metadata
     id="metadata8"><rdf:RDF><cc:Work
         rdf:about=""><dc:format>image/svg+xml</dc:format><dc:type
           rdf:resource="http://purl.org/dc/dcmitype/StillImage" /><dc:title /></cc:Work></rdf:RDF></metadata><defs
     id="defs6" /><path
     id="path14"
     style="fill:#ffffff;fill-opacity:1;fill-rule:nonzero;stroke:none;stroke-width:0.13333333"
     d="M -173.18007,481.19544 H -706.51339 V -25.471211 h 533.33332 V 481.19544"
     inkscape:connector-curvature="0" /><path
     id="path926"
     style="fill:#787878;fill-opacity:1;fill-rule:nonzero;stroke:none;stroke-width:1.21223"
     d="m 211.65136,56.05121 c -17.58084,38.515065 48.05822,66.86236 48.05822,66.86236 V 56.05121 h -48.05822"
     inkscape:connector-curvature="0" /><path
     id="path928"
     style="fill:#787878;fill-opacity:1;fill-rule:nonzero;stroke:none;stroke-width:1.21223"
     d="m 307.7666,56.05121 c 17.55805,38.515065 -48.05702,66.86236 -48.05702,66.86236 V 56.05121 h 48.05702"
     inkscape:connector-curvature="0" /><path
     id="path930"
     style="fill:#787878;fill-opacity:1;fill-rule:nonzero;stroke:none;stroke-width:1.21223"
     d="m 211.55299,58.21952 c 0,-0.74724 0.0657,-1.433289 0.0983,-2.16831 l -19.93319,5.659657 c 0.6322,13.058868 4.92061,25.088698 11.65378,35.293228 12.21518,18.534765 32.80094,30.821855 56.33762,30.821855 v -20.42131 c -26.60158,0 -48.15658,-22.038365 -48.15658,-49.18512"
     inkscape:connector-curvature="0" /><path
     id="path932"
     style="fill:#787878;fill-opacity:1;fill-rule:nonzero;stroke:none;stroke-width:1.21223"
     d="M 327.27394,61.282111 307.7666,55.634702 c 0.0369,0.833054 0.11273,1.702794 0.11273,2.584818 0,27.146755 -21.54061,49.18512 -48.16978,49.18512 v 20.42131 c 23.54149,0 44.13564,-12.28709 56.36041,-30.821855 6.77635,-10.29028 11.0636,-22.41812 11.64899,-35.587236 l -0.44507,-0.134784"
     inkscape:connector-curvature="0" /><path
     id="path934"
     style="fill:#f7a1dc;fill-opacity:1;fill-rule:nonzero;stroke:none;stroke-width:1.21223"
     d="M 381.36718,170.15088 136.3558,420.36405 v 0.74696 h 246.70756 v -231.11483 -1.24954 c -0.0288,-2.68282 -0.26747,-9.66551 -1.69618,-18.59604"
     inkscape:connector-curvature="0" /><path
     id="path936"
     style="fill:#f7a1dc;fill-opacity:1;fill-rule:nonzero;stroke:none;stroke-width:1.21223"
     d="m 442.17438,108.0539 -60.8072,62.09698 c 1.42868,8.93052 1.66739,15.91321 1.69618,18.59604 v 1.24953 l 41.51578,12.83833 28.209,-89.29272 -10.61376,-5.48816"
     inkscape:connector-curvature="0" /><path
     id="path942"
     style="fill:#f7a1dc;fill-opacity:1;fill-rule:nonzero;stroke:none;stroke-width:1.21223"
     d="m 383.06336,77.440305 -55.77503,-16.17045 -0.0144,0.01194 0.44507,0.134784 c -0.58542,13.169126 -4.87264,25.296956 -11.64899,35.587246 -12.22478,18.534765 -32.81893,30.821855 -56.36041,30.821855 -23.53669,0 -44.12245,-12.28709 -56.33763,-30.821855 -6.73316,-10.20454 -11.02161,-22.23437 -11.65378,-35.293238 L 136.35581,77.440025 66.631037,113.55403 94.838832,202.8345 136.35581,189.99618 V 420.36377 L 381.3672,170.1506 442.17439,108.05363 383.06338,77.440025"
     inkscape:connector-curvature="0" /></svg>
